<?xml version="1.0" encoding="UTF-8"?>
<svg version="1.1" xmlns="http://www.w3.org/2000/svg" width="500" height="500">
<path d="M0 0 C165 0 330 0 500 0 C500 165 500 330 500 500 C335 500 170 500 0 500 C0 335 0 170 0 0 Z " fill="#FEFEFE" transform="translate(0,0)"/>
<path d="M0 0 C0.97630371 0.00966797 1.95260742 0.01933594 2.95849609 0.02929688 C40.57392384 0.65653429 71.32572346 26.23499377 97.1875 51.25 C99.64722884 53.82391354 101.92629646 56.50168912 104.1875 59.25 C104.93128906 60.1059375 105.67507813 60.961875 106.44140625 61.84375 C121.03123635 78.83097002 134.25485698 98.1306637 139.1875 120.25 C139.36112061 120.88164062 139.53474121 121.51328125 139.71362305 122.1640625 C141.99214518 132.19378591 140.97963297 144.79269673 137.1875 154.25 C136.85878906 155.0853125 136.53007812 155.920625 136.19140625 156.78125 C129.78251726 171.15135402 117.30152557 180.25433214 103.1875 186.25 C97.75677537 188.01540584 92.8998396 188.31890639 87.1875 188.25 C87.46189156 182.8079007 87.75282203 177.21304746 90.1875 172.25 C93.43899855 169.72248466 96.75168075 168.29956557 100.5390625 166.8046875 C109.53658624 162.97062492 116.55704611 154.74427633 121.1875 146.25 C121.1875 145.26 121.1875 144.27 121.1875 143.25 C120.49140625 143.97703125 120.49140625 143.97703125 119.78125 144.71875 C107.41728585 156.7136406 91.45199836 162.60740555 74.44140625 162.39453125 C62.04421167 161.84387555 51.04985965 156.58252489 40.00390625 151.328125 C26.01755259 144.68348271 13.49179383 139.73115067 -1.8125 137.25 C7.78876584 119.42364976 33.93437376 105.99412696 52.1875 99.25 C21.58304402 100.52253455 -1.65839221 117.55159748 -22.23046875 138.7734375 C-35.95156465 152.85747735 -35.95156465 152.85747735 -43.8125 157.25 C-44.83214844 157.82492188 -45.85179687 158.39984375 -46.90234375 158.9921875 C-57.75315366 164.38651912 -69.47798686 165.14453987 -81.25 162.1875 C-92.46839818 158.06763998 -101.63557387 150.38015885 -107.8125 140.25 C-105.66026119 152.38080056 -100.61484058 162.19455165 -90.5 169.4375 C-89.82324219 169.88480469 -89.14648438 170.33210937 -88.44921875 170.79296875 C-86.43865653 172.58280099 -86.15810769 173.60856983 -85.8125 176.25 C-85.69044671 178.92540816 -85.76782687 181.56961238 -85.8125 184.25 C-100.58787002 187.82930475 -114.94104654 184.86385157 -127.8125 177.25 C-138.39692357 169.88770537 -145.30613691 158.22725305 -148.421875 145.82421875 C-150.49656019 132.15204337 -148.24953962 119.43680943 -140.5 107.8125 C-139.30354478 106.26580041 -138.07501317 104.74326663 -136.8125 103.25 C-136.24015625 102.55519531 -135.6678125 101.86039062 -135.078125 101.14453125 C-124.92957557 89.93342003 -110.19840927 85.18859896 -96.37304688 80.20117188 C-92.82526454 78.88326951 -89.32990817 77.44465544 -85.83496094 75.99316406 C-83.8125 75.25 -83.8125 75.25 -81.8125 75.25 C-84.31892635 84.16173812 -92.2142079 89.7776855 -99.8125 94.25 C-100.8025 94.745 -100.8025 94.745 -101.8125 95.25 C-91.79242366 94.87188391 -82.59666262 89.54338548 -75.8125 82.25 C-68.28194172 73.27317556 -64.39177513 62.74899162 -60.53125 51.83984375 C-53.48949749 32.03154992 -47.31966102 15.9509721 -27.875 5.9375 C-27.21878662 5.59928223 -26.56257324 5.26106445 -25.88647461 4.91259766 C-17.43005458 0.79041934 -9.32900394 -0.09726155 0 0 Z " fill="#FDFDFD" transform="translate(249.8125,93.75)"/>
<path d="M0 0 C18.58594153 14.1498128 35.34944668 31.13262788 48.70410156 50.29736328 C49.15817383 50.93867188 49.61224609 51.57998047 50.08007812 52.24072266 C63.6012228 71.42256348 74.33782396 91.60840747 74.20410156 115.60986328 C74.19910645 116.79322266 74.19411133 117.97658203 74.18896484 119.19580078 C74.00495762 128.44438436 72.72646174 135.87822111 68.70410156 144.29736328 C68.28128906 145.26029297 67.85847656 146.22322266 67.42285156 147.21533203 C59.12417448 164.31929148 43.44188799 175.89298432 25.89160156 182.04736328 C20.23026824 183.93082427 14.77819148 184.42056828 8.82910156 184.35986328 C7.67667969 184.35083984 6.52425781 184.34181641 5.33691406 184.33251953 C4.46808594 184.32091797 3.59925781 184.30931641 2.70410156 184.29736328 C2.57455078 185.62960937 2.57455078 185.62960937 2.44238281 186.98876953 C1.08889786 199.29430704 -1.52277012 211.241386 -4.29589844 223.29736328 C-8.64554643 222.73593544 -12.85862639 221.9795606 -17.13647461 220.98974609 C-38.33097837 216.17376612 -59.35316935 213.91931523 -81.04589844 213.92236328 C-82.28851944 213.91964417 -82.28851944 213.91964417 -83.5562439 213.91687012 C-105.26571384 213.92226264 -125.93110285 217.40293638 -147.09057617 222.02734375 C-150.21346458 222.70144307 -153.09080682 223.29736328 -156.29589844 223.29736328 C-158.93589844 209.10736328 -161.57589844 194.91736328 -164.29589844 180.29736328 C-167.26589844 180.62736328 -170.23589844 180.95736328 -173.29589844 181.29736328 C-190.66172476 182.36200188 -207.2041771 178.66874729 -220.60839844 166.92236328 C-222.18928688 165.3995586 -223.75321526 163.85885967 -225.29589844 162.29736328 C-225.93269531 161.68248047 -226.56949219 161.06759766 -227.22558594 160.43408203 C-237.70394118 149.55987781 -243.17527148 133.14993052 -243.79589844 118.23486328 C-243.0247231 99.85103828 -234.53288926 83.65308705 -221.29589844 71.29736328 C-208.51885043 60.2125136 -192.39082015 55.02818902 -176.72607422 49.38012695 C-163.76246759 45.07350766 -163.76246759 45.07350766 -154.30761719 35.94970703 C-152.9377027 31.03446581 -152.9377027 31.03446581 -151.66210938 26.09448242 C-146.8538118 6.6895672 -137.74721579 -9.97734793 -120.29589844 -20.70263672 C-79.7762406 -44.46897449 -34.65257077 -26.03238581 0 0 Z M-124.10400391 -1.12866211 C-132.7090339 8.39552847 -136.83736247 20.14150826 -140.98339844 32.04736328 C-152.79039048 65.59594228 -152.79039048 65.59594228 -169.29589844 74.29736328 C-174.09180553 76.55758459 -177.94611589 78.29736328 -183.29589844 78.29736328 C-182.65523437 77.94544922 -182.01457031 77.59353516 -181.35449219 77.23095703 C-173.88425231 72.96701982 -167.15326342 68.23899707 -163.29589844 60.29736328 C-163.29589844 59.63736328 -163.29589844 58.97736328 -163.29589844 58.29736328 C-198.54828301 69.11841097 -198.54828301 69.11841097 -224.29589844 94.29736328 C-230.65375694 108.31767982 -232.69709266 121.52921983 -227.56542969 136.28955078 C-221.88346245 149.7514424 -212.64057248 160.06156591 -198.98339844 165.73486328 C-192.81835662 168.06899626 -186.77629172 168.45901815 -180.23339844 168.42236328 C-179.1921582 168.42816406 -179.1921582 168.42816406 -178.12988281 168.43408203 C-174.39256473 168.42698361 -170.9287895 168.18965231 -167.29589844 167.29736328 C-167.25464844 166.08048828 -167.21339844 164.86361328 -167.17089844 163.60986328 C-167.14769531 162.92537109 -167.12449219 162.24087891 -167.10058594 161.53564453 C-167.44920059 157.54052059 -168.44096258 155.05388925 -171.46777344 152.37548828 C-172.31855469 151.77220703 -173.16933594 151.16892578 -174.04589844 150.54736328 C-182.34615362 144.14875157 -186.49881961 136.33394024 -189.29589844 126.29736328 C-189.29589844 125.30736328 -189.29589844 124.31736328 -189.29589844 123.29736328 C-188.88339844 123.86583984 -188.47089844 124.43431641 -188.04589844 125.02001953 C-180.6962311 134.84691849 -172.12973836 142.6422265 -159.95214844 145.93017578 C-144.83656324 148.01968315 -132.9332793 145.83033556 -120.27636719 137.25048828 C-113.04930476 131.58463676 -106.6965451 124.8630696 -100.29589844 118.29736328 C-99.41675781 117.42080078 -98.53761719 116.54423828 -97.63183594 115.64111328 C-96.30959905 114.3144542 -94.99964105 112.97444273 -93.73339844 111.59423828 C-84.24098082 101.3795715 -71.7904988 95.05086695 -59.29589844 89.29736328 C-58.3896875 88.87455078 -57.48347656 88.45173828 -56.54980469 88.01611328 C-48.02520501 84.32072032 -38.6041917 82.01529379 -29.29589844 82.29736328 C-29.85349854 82.5479248 -30.41109863 82.79848633 -30.9855957 83.05664062 C-46.50516389 90.08707675 -60.67353204 97.48265647 -73.13574219 109.25830078 C-75.14723395 111.15703261 -77.22056628 112.91890903 -79.35839844 114.67236328 C-82.48126469 117.02566349 -82.48126469 117.02566349 -83.29589844 120.29736328 C-82.16796875 120.48169922 -81.04003906 120.66603516 -79.87792969 120.85595703 C-62.62073466 123.93693614 -47.63828473 131.18779281 -31.92675781 138.68334961 C-17.00419538 145.75202704 -1.28280484 147.88308472 14.53613281 142.29736328 C24.53555059 138.39515146 33.47341705 133.30974342 40.70410156 125.29736328 C38.52750088 134.72929958 30.45310801 142.89002739 22.70410156 148.29736328 C20.88416306 149.0555056 19.06347457 149.81255246 17.22827148 150.53295898 C11.55576594 152.68088424 11.55576594 152.68088424 7.78613281 157.1640625 C6.38307576 161.79946539 5.94713888 166.47712319 5.70410156 171.29736328 C20.21347961 171.61860412 33.07661109 165.50960361 43.53564453 155.68261719 C50.50711027 148.77619678 55.36384258 140.83841914 57.70410156 131.29736328 C57.88585937 130.57033203 58.06761719 129.84330078 58.25488281 129.09423828 C62.02828749 105.60069262 53.18598284 83.12614936 39.79003906 64.11767578 C39.10167969 63.18697266 38.41332031 62.25626953 37.70410156 61.29736328 C36.5478125 59.71568359 36.5478125 59.71568359 35.36816406 58.10205078 C30.34701357 51.34984841 24.92457964 45.08267572 19.16894531 38.94970703 C17.20861289 36.84025265 15.34355473 34.70790386 13.51660156 32.48486328 C10.89333124 29.38327587 7.96975318 26.7817608 4.87207031 24.16064453 C3.40658263 22.90111728 1.97174445 21.60517201 0.56738281 20.27783203 C-24.80589275 -3.63077228 -54.79521022 -17.81612191 -89.75439453 -16.83007812 C-102.46736824 -16.1925976 -115.02859327 -9.99200968 -124.10400391 -1.12866211 Z " fill="#040404" transform="translate(331.2958984375,110.70263671875)"/>
<path d="M0 0 C1.13519577 -0.00432541 2.27039154 -0.00865082 3.43998718 -0.0131073 C5.83106182 -0.01348712 8.22219556 0.00347765 10.61303711 0.03686523 C14.24177645 0.08178439 17.8653581 0.05763006 21.49414062 0.02539062 C33.51497767 0.02653107 42.75203355 0.07730562 52.94921875 6.89453125 C64.1325181 11.73024329 75.86684306 14.03634382 87.94921875 14.89453125 C88.1120877 20.21085243 87.53610821 25.00246229 86.48828125 30.20703125 C86.33765228 30.97958252 86.18702332 31.75213379 86.03182983 32.5480957 C85.7137812 34.17232396 85.39257362 35.79593654 85.06835938 37.41894531 C84.57592693 39.88597349 84.09379231 42.35484391 83.61328125 44.82421875 C83.30138539 46.41027517 82.98890478 47.99621674 82.67578125 49.58203125 C82.53298737 50.31139893 82.39019348 51.0407666 82.24307251 51.79223633 C81.35139704 56.23566794 80.24887559 60.55238272 78.94921875 64.89453125 C77.97984375 64.70117188 77.01046875 64.5078125 76.01171875 64.30859375 C54.59355239 60.11561938 33.37646793 58.66230075 11.57421875 58.64453125 C10.11455185 58.64252213 10.11455185 58.64252213 8.62539673 58.64047241 C-6.13980305 58.64487527 -20.49712641 59.18391304 -35.05078125 61.89453125 C-35.83195312 62.03858398 -36.613125 62.18263672 -37.41796875 62.33105469 C-40.73161553 62.95448397 -44.02717729 63.61814394 -47.3203125 64.34375 C-50.05078125 64.89453125 -50.05078125 64.89453125 -53.05078125 64.89453125 C-53.28788818 63.61811768 -53.52499512 62.3417041 -53.76928711 61.02661133 C-54.65045349 56.28354605 -55.53206869 51.54056429 -56.41381836 46.79760742 C-56.79512547 44.74619784 -57.17631144 42.69476574 -57.55737305 40.64331055 C-58.10563698 37.69183494 -58.65433886 34.74044104 -59.203125 31.7890625 C-59.45786842 30.41691338 -59.45786842 30.41691338 -59.71775818 29.01704407 C-60.47050276 24.97090879 -61.2267259 20.92690875 -62.05078125 16.89453125 C-60.77203125 16.91773438 -59.49328125 16.9409375 -58.17578125 16.96484375 C-56.4674538 16.98361658 -54.75911998 17.00181514 -53.05078125 17.01953125 C-52.21160156 17.03628906 -51.37242187 17.05304688 -50.5078125 17.0703125 C-42.1819508 17.13485406 -35.63234287 15.47086851 -28.11328125 11.70703125 C-26.99050781 11.15660156 -25.86773437 10.60617187 -24.7109375 10.0390625 C-21.76173887 8.47281802 -19.54965776 6.5471744 -17.07519531 4.31640625 C-11.55766092 0.00509616 -6.82094174 -0.10979004 0 0 Z " fill="#FDFDFD" transform="translate(238.05078125,254.10546875)"/>
<path d="M0 0 C6.75 0.75 6.75 0.75 9 3 C8.69528734 7.43786647 6.65351826 10.71845808 4.4375 14.5 C3.91047485 15.40552612 3.91047485 15.40552612 3.37280273 16.3293457 C0.20774426 21.73517843 -3.09439565 27.05588037 -6.43359375 32.35546875 C-8.10660335 34.96748497 -8.10660335 34.96748497 -9 38 C-8.53851563 37.50371094 -8.07703125 37.00742187 -7.6015625 36.49609375 C-2.52011986 31.2037612 2.87826274 27.02316659 9 23 C9.99 22.34 10.98 21.68 12 21 C15.1875 21.375 15.1875 21.375 18 22 C18.89033873 24.96779576 19.19239166 26.51591776 18.03125 29.4375 C17.5259375 30.283125 17.020625 31.12875 16.5 32 C15.95085937 32.94488281 15.40171875 33.88976562 14.8359375 34.86328125 C13.92714844 36.41595703 13.92714844 36.41595703 13 38 C11.68881477 40.38546463 10.40637145 42.78591928 9.125 45.1875 C8.52945313 46.29480469 7.93390625 47.40210938 7.3203125 48.54296875 C6.88460937 49.35378906 6.44890625 50.16460937 6 51 C14.07004198 47.02651528 18.3815453 42.89775455 22.75 35.125 C26.17416535 29.27649019 30.87312836 23.44802514 37.44921875 21.140625 C40.68676435 20.96213857 42.40196381 21.79894783 45.25 23.3125 C46.12140625 23.76238281 46.9928125 24.21226562 47.890625 24.67578125 C50 26 50 26 51 28 C51.94986532 33.56349686 49.6362191 36.64667449 46.60546875 41.046875 C45 43 45 43 42 45 C38.03952054 45.33706208 35.40322874 45.09429461 32 43 C29.90649311 46.4019487 29.82057837 49.05272412 30 53 C33.58580274 52.42652364 36.29458929 51.49705465 39.4375 49.6875 C40.20835937 49.2440625 40.97921875 48.800625 41.7734375 48.34375 C44.58276634 46.6482954 47.30229683 44.86764066 50 43 C47.28892204 50.68138755 43.58821387 54.91938874 36.52734375 58.859375 C33.06173113 60.42345365 30.73734688 60.71872055 27 60 C23.34637327 58.13871846 21.46823088 56.93646177 19.625 53.25 C19.315625 52.13625 19.315625 52.13625 19 51 C18.2575 51.763125 17.515 52.52625 16.75 53.3125 C12.51742851 57.44887669 9.85630403 59.57125884 3.90234375 60.13671875 C2 60 2 60 -0.4375 58.25 C-3.32397618 54.0934743 -3.52148609 49.91066068 -3 45 C-2.18537215 42.21037324 -1.14861576 39.68010344 0 37 C-0.33 37.33 -0.66 37.66 -1 38 C-1.82886719 38.7940625 -2.65773437 39.588125 -3.51171875 40.40625 C-9.46705198 46.18031753 -14.82593402 51.75030646 -19 59 C-21.96175123 58.38722388 -23.38058783 57.74627478 -26 56 C-26.6875 52.375 -26.6875 52.375 -27 49 C-27.66386719 49.63808594 -28.32773438 50.27617187 -29.01171875 50.93359375 C-29.89472656 51.75988281 -30.77773437 52.58617187 -31.6875 53.4375 C-32.55761719 54.26121094 -33.42773438 55.08492188 -34.32421875 55.93359375 C-37.0709743 58.05481081 -38.55671503 58.86866409 -42 59 C-42.99 58.34 -43.98 57.68 -45 57 C-45 56.34 -45 55.68 -45 55 C-45.66 55 -46.32 55 -47 55 C-49.15651142 48.53046574 -48.39400936 44.24951234 -45.4375 38.25 C-42.13358316 32.06796944 -38.60291539 26.01196532 -35 20 C-35.78375 20.04125 -36.5675 20.0825 -37.375 20.125 C-40 20 -40 20 -42 18 C-41.625 15.375 -41.625 15.375 -41 13 C-37.95777791 11.98592597 -36.76224772 12.09232107 -33.6875 12.4375 C-30.57120772 12.50855552 -29.45117734 12.42452551 -27.1484375 10.2578125 C-25.54584786 8.09436636 -25.54584786 8.09436636 -24.19140625 5.84765625 C-23 4 -23 4 -21 3 C-18 2.8125 -18 2.8125 -15 3 C-13 5 -13 5 -12.875 7.625 C-12.91625 8.40875 -12.9575 9.1925 -13 10 C-10.24617626 10.2032794 -10.24617626 10.2032794 -7 9 C-4.36114127 6.20839296 -2.16382801 3.16891971 0 0 Z " fill="#070707" transform="translate(149,338)"/>
<path d="M0 0 C3.37462715 0.54723683 5.08235 1.0549 8 3 C7.7411784 8.176432 5.87600013 10.81124983 2.765625 14.69921875 C-0.47185928 18.91797591 -3.19567833 23.48653554 -6 28 C-4.5805831 26.92027262 -3.1645917 25.83604137 -1.75 24.75 C-0.96109375 24.14671875 -0.1721875 23.5434375 0.640625 22.921875 C4.45336949 19.81612949 7.30421906 16.7527277 9.875 12.5625 C14.05121256 6.18828083 18.60492802 2.42252358 26 0 C29.67828143 -0.50377963 32.86092436 -0.62810731 36.203125 1.21484375 C38 3 38 3 38.56640625 5.27734375 C38.54908702 17.0717426 34.16683755 25.45932111 26.28125 34.0390625 C21.93987109 37.77086424 17.66837694 38.52337048 12.0859375 38.375 C10 38 10 38 7.5625 35.9375 C5.79114723 32.60735679 4.86230295 29.66478753 4 26 C3.39671875 26.68707031 2.7934375 27.37414062 2.171875 28.08203125 C1.37265625 28.98308594 0.5734375 29.88414062 -0.25 30.8125 C-1.43335938 32.15248047 -1.43335938 32.15248047 -2.640625 33.51953125 C-4.67540986 35.65875044 -6.5024651 37.43773445 -9 39 C-11.625 38.875 -11.625 38.875 -14 38 C-16.52456387 34.2131542 -16.40465294 32.50636229 -16 28 C-15.08555752 25.11751827 -13.83818574 22.45810103 -12.5 19.75 C-12.14486328 19.01144775 -11.78972656 18.27289551 -11.42382812 17.51196289 C-8.26689278 11.14191651 -4.48737493 5.52567711 0 0 Z " fill="#070707" transform="translate(365,359)"/>
<path d="M0 0 C0.66443115 0.16443604 1.3288623 0.32887207 2.01342773 0.49829102 C5.62649261 1.10524338 9.13684088 1.08649126 12.78515625 1.02734375 C14.30012798 1.01470374 15.81510205 1.00234233 17.33007812 0.99023438 C19.70230531 0.96538271 22.07440873 0.93733292 24.4465332 0.90405273 C26.74691552 0.87383151 29.04713868 0.856077 31.34765625 0.83984375 C32.40872337 0.81965431 32.40872337 0.81965431 33.4912262 0.79905701 C37.17365873 0.78032648 39.87211211 0.96509138 43 3 C42.67 4.32 42.34 5.64 42 7 C41.03320312 7.07992188 40.06640625 7.15984375 39.0703125 7.2421875 C31.49849153 8.38609519 31.49849153 8.38609519 25.43701172 12.73046875 C22.48001122 17.12983188 20.27521585 21.91174935 18.07470703 26.72265625 C16.57291118 29.90501692 14.80809253 32.85552143 13 35.875 C9.2543152 42.37308071 5.9219016 49.04951071 2.67578125 55.81005859 C-0.11641647 61.53844112 -3.34317591 66.78233636 -7 72 C-9.875 71.6875 -9.875 71.6875 -13 71 C-15 68 -15 68 -14.79614258 65.16992188 C-13.97030602 61.88177043 -12.83856815 59.27844644 -11.26171875 56.28125 C-10.69412842 55.19384521 -10.12653809 54.10644043 -9.54174805 52.98608398 C-8.92984619 51.83567627 -8.31794434 50.68526855 -7.6875 49.5 C-7.05780278 48.30245209 -6.4286583 47.10461339 -5.80004883 45.90649414 C-0.3148466 35.48075871 5.31117609 25.1300724 11.00708008 14.81811523 C11.69519447 13.55812313 12.35795926 12.28408147 13 11 C11.7625 11.061875 10.525 11.12375 9.25 11.1875 C6.59572609 11.16401085 5.04894778 11.02008114 2.5625 10 C0.12153994 6.87557112 0.25686819 3.9172399 0 0 Z " fill="#060606" transform="translate(208,333)"/>
<path d="M0 0 C8.52413793 2.52413793 8.52413793 2.52413793 10 4 C10.04063832 5.66617115 10.042721 7.33388095 10 9 C5.40765957 10.14808511 5.40765957 10.14808511 3.12890625 9.3203125 C0.87326665 8.75899536 0.87326665 8.75899536 -1.33203125 10.30078125 C-7.41443438 15.23375387 -11.87886548 20.34068329 -16 27 C-11.00278939 22.93976638 -6.96796414 18.73298329 -2.9921875 13.66015625 C-1 12 -1 12 1.5546875 12.18359375 C2.36164063 12.45300781 3.16859375 12.72242188 4 13 C5.485 13.495 5.485 13.495 7 14 C6.48964169 18.3890815 5.47785723 21.33708062 3 25 C4.98 24.01 6.96 23.02 9 22 C8.49572053 26.41244536 6.98672249 28.74974317 4 32 C0.77626323 34.14915785 -0.26703674 34.38286803 -4 34 C-6.5654594 31.4345406 -6.54046087 29.52313332 -7 26 C-7.66386719 26.80566406 -8.32773438 27.61132812 -9.01171875 28.44140625 C-9.90276594 29.48252454 -10.79474194 30.52284841 -11.6875 31.5625 C-12.34008789 32.36204102 -12.34008789 32.36204102 -13.00585938 33.17773438 C-14.32421875 34.69140625 -14.32421875 34.69140625 -17 37 C-20.46562521 36.94970065 -21.62029711 36.32696638 -24.25 34.0625 C-27.16226803 30.6301841 -27.34530827 28.47282124 -27 24 C-23.53044123 15.96580297 -18.12796553 9.16699716 -12 3 C-10.7315625 1.700625 -10.7315625 1.700625 -9.4375 0.375 C-5.88230435 -1.63049498 -3.92008246 -0.98002062 0 0 Z " fill="#090909" transform="translate(245,361)"/>
<path d="M0 0 C4.58363363 1.52787788 7.96753244 3.71753244 11.375 7.125 C11.11605407 13.8575943 8.68440011 17.81559989 4 22.5 C0.80101712 24.48032274 -0.92168415 24.59776373 -4.625 24.125 C-7 23.125 -7 23.125 -8.625 22.125 C-9.7827506 25.59825181 -9.69366652 28.48567448 -9.625 32.125 C-5.38675918 31.55579887 -2.61597375 30.09262386 0.9375 27.75 C1.86691406 27.14414062 2.79632813 26.53828125 3.75390625 25.9140625 C6.01091005 24.37351445 8.20722027 22.78781457 10.375 21.125 C8.88901855 27.72936201 4.86682627 32.67387489 -0.6171875 36.5234375 C-4.96105545 38.9066491 -8.62708045 39.95798659 -13.625 39.125 C-16.58849318 37.31620123 -19.04695706 35.28108588 -20.625 32.125 C-21.54045191 23.74207607 -20.51551046 17.98589004 -15.625 11.125 C-15.026875 10.238125 -14.42875 9.35125 -13.8125 8.4375 C-6.0276975 0.20785164 -6.0276975 0.20785164 0 0 Z " fill="#0A0A0A" transform="translate(327.625,358.875)"/>
<path d="M0 0 C2.43359375 1.19140625 2.43359375 1.19140625 4.4375 2.5625 C5.11683594 3.01753906 5.79617188 3.47257812 6.49609375 3.94140625 C6.99238281 4.29074219 7.48867188 4.64007813 8 5 C7.4916752 9.44784203 6.16430777 11.83569223 3 15 C0.44281285 16.60520461 -2.1300852 18.04336173 -5 19 C-5.66 18.67 -6.32 18.34 -7 18 C-6.34 17.21625 -5.68 16.4325 -5 15.625 C-2.79798559 13.28487188 -2.79798559 13.28487188 -3 11 C-4.31886772 12.09655288 -5.62990057 13.20253423 -6.9375 14.3125 C-7.66839844 14.92738281 -8.39929688 15.54226563 -9.15234375 16.17578125 C-11.23820366 17.95975519 -11.23820366 17.95975519 -12 21 C-11.030625 21.61875 -10.06125 22.2375 -9.0625 22.875 C-6 25 -6 25 -5 27 C-4.5625 29.8125 -4.5625 29.8125 -5 33 C-10.18134079 38.72674508 -17.33797591 41.59310843 -24.9375 42.4375 C-28 42 -28 42 -29.9375 40.75 C-31 39 -31 39 -31 35 C-30.34773437 34.81824219 -29.69546875 34.63648438 -29.0234375 34.44921875 C-24.09666516 33.03222671 -19.4469996 31.62258951 -15 29 C-14.67 28.34 -14.34 27.68 -14 27 C-15.1446875 26.6596875 -15.1446875 26.6596875 -16.3125 26.3125 C-19.65829589 24.67850666 -20.53342986 23.3962677 -22 20 C-22.53585656 16.40210595 -22.22679356 14.48598621 -20.6875 11.1875 C-15.40877233 4.13662804 -9.11141892 -2.43387218 0 0 Z " fill="#0A0A0A" transform="translate(279,359)"/>
<path d="M0 0 C3.38251718 0.67650344 4.98145686 1.32969858 7.4375 3.6875 C6.95425181 8.84214734 4.25139239 12.50300319 1.4375 16.6875 C4.9025 16.1925 4.9025 16.1925 8.4375 15.6875 C7.48881452 19.19763628 6.84198369 20.4392941 3.6875 22.375 C0.4375 23.6875 0.4375 23.6875 -2.52734375 24.40234375 C-6.45138467 26.06387459 -7.36702221 27.85476675 -9.375 31.5625 C-9.95894531 32.61179687 -10.54289062 33.66109375 -11.14453125 34.7421875 C-12.29007589 37.12163835 -13.08337506 39.11142564 -13.5625 41.6875 C-11.97829871 41.06470331 -10.39517469 40.43916599 -8.8125 39.8125 C-7.93078125 39.46445312 -7.0490625 39.11640625 -6.140625 38.7578125 C-3.8884752 37.8228291 -1.72600541 36.80969206 0.4375 35.6875 C-0.83350023 41.61883443 -3.77530062 44.33334512 -8.5625 47.6875 C-11.5245439 49.30957166 -12.89697278 49.74940951 -16.25 49.4375 C-18.5625 48.6875 -18.5625 48.6875 -20.5625 46.6875 C-23.14885472 39.96297774 -21.53807548 33.24852926 -19.03125 26.8203125 C-16.33352155 21.06611512 -12.97591934 15.72853062 -9.58740234 10.36132812 C-8.70749595 8.92430139 -7.90236383 7.44196005 -7.11328125 5.953125 C-5.09650589 2.17418379 -4.32269282 0.83420388 0 0 Z " fill="#090909" transform="translate(304.5625,347.3125)"/>
<path d="M0 0 C-4.07783417 13.59968046 -12.14223397 24.32732786 -24 32 C-24.66 32 -25.32 32 -26 32 C-25.44403671 27.29224635 -23.32918926 23.76401595 -20.875 19.8125 C-20.46975098 19.15483643 -20.06450195 18.49717285 -19.64697266 17.81958008 C-18.8253322 16.49561045 -17.99905025 15.17450911 -17.16796875 13.85644531 C-16.12772429 12.20301327 -15.10917353 10.53597781 -14.09375 8.8671875 C-9.48166716 1.67653108 -9.48166716 1.67653108 -5.1875 0.375 C-2 0 -2 0 0 0 Z " fill="#F3F3F3" transform="translate(137,356)"/>
<path d="M0 0 C-0.5495009 8.42568052 -3.88024689 15.45993994 -10.1875 21.125 C-13.65207373 24 -13.65207373 24 -16 24 C-16.86856477 18.49908978 -14.77830089 15.04468561 -11.9296875 10.546875 C-3.93865031 0 -3.93865031 0 0 0 Z " fill="#F1F1F1" transform="translate(396,367)"/>
<path d="M0 0 C2.875 0.625 2.875 0.625 5.875 2.625 C5.875 5.56577007 5.30178658 7.19006475 3.23828125 9.29296875 C-0.13083807 11.99468158 -2.26127638 13.53245818 -6.625 14 C-7.45 13.87625 -8.275 13.7525 -9.125 13.625 C-8.58835414 7.90077754 -5.97312967 1.19462593 0 0 Z " fill="#090909" transform="translate(381.125,339.375)"/>
<path d="M0 0 C0.125 2.875 0.125 2.875 0 6 C-2 8 -2 8 -5.625 8.125 C-6.73875 8.08375 -7.8525 8.0425 -9 8 C-9.6875 5.6875 -9.6875 5.6875 -10 3 C-7.29241019 -0.79062573 -4.29786 -1.33381862 0 0 Z " fill="#0A0A0A" transform="translate(345,391)"/>
<path d="M0 0 C0.66 0.33 1.32 0.66 2 1 C-2.62661705 7.73304432 -8.13121677 13.33998772 -14 19 C-14.66 18.67 -15.32 18.34 -16 18 C-11.29805919 11.08464557 -6.61714893 5.1564485 0 0 Z " fill="#DDDDDD" transform="translate(244,370)"/>
<path d="M0 0 C0.6015625 1.796875 0.6015625 1.796875 1 4 C-0.625 7.25 -0.625 7.25 -3 10 C-5.75 10.375 -5.75 10.375 -8 10 C-6.34908222 5.70761377 -3.26245434 3.1206085 0 0 Z " fill="#EDEDED" transform="translate(330,368)"/>
<path d="M0 0 C1.16095535 2.84961767 1.06567925 3.83945073 -0.125 6.75 C-2 9 -2 9 -4.6875 9.3125 C-5.450625 9.209375 -6.21375 9.10625 -7 9 C-5.64978174 4.58110387 -3.73884332 2.65654657 0 0 Z " fill="#ECECEC" transform="translate(191,369)"/>
<path d="M0 0 C0.66 0.33 1.32 0.66 2 1 C1.01 3.64 0.02 6.28 -1 9 C-1.66 8.34 -2.32 7.68 -3 7 C-5.97 9.97 -8.94 12.94 -12 16 C-12 13 -12 13 -9.62890625 10.37109375 C-8.61413861 9.38558546 -7.59164611 8.40798351 -6.5625 7.4375 C-2.82510599 4.07641393 -2.82510599 4.07641393 0 0 Z " fill="#D9D9D9" transform="translate(148,374)"/>
<path d="M0 0 C1.32 0.66 2.64 1.32 4 2 C2.68 4.64 1.36 7.28 0 10 C-2 6 -2 6 -1.125 3.3125 C-0.75375 2.549375 -0.3825 1.78625 0 1 C0 0.67 0 0.34 0 0 Z " fill="#D4D4D4" transform="translate(198,380)"/>
<path d="M0 0 C2.125 0.9375 2.125 0.9375 4 2 C0.86501708 3.85776765 -1.37471432 4.20140476 -5 4 C-3.36587557 2.29159719 -2.13093906 1.06546953 0 0 Z " fill="#464646" transform="translate(152,186)"/>
</svg>
